<?xml version="1.0" encoding="utf-8"?>
<!-- Generator: Adobe Illustrator 27.6.1, SVG Export Plug-In . SVG Version: 6.00 Build 0)  -->
<svg version="1.1" id="Calque_1" xmlns="http://www.w3.org/2000/svg" xmlns:xlink="http://www.w3.org/1999/xlink" x="0px" y="0px"
	 viewBox="0 0 155.9 155.9" style="enable-background:new 0 0 155.9 155.9;" xml:space="preserve">
<style type="text/css">
	.st0{fill:#FFFFFF;}
</style>
<circle class="st0" cx="78" cy="77" r="60.8"/>
<path d="M78,5.7C38,5.7,5.7,38,5.7,78S38,150.3,78,150.3s72.3-32.4,72.3-72.3S117.9,5.7,78,5.7z M107,94.7
	c-9.2,11.2-21.8,21.3-27.9,26.1c-0.3,0.3-0.8,0.4-1.2,0.4s-0.9-0.1-1.2-0.4c-6.1-4.8-18.7-14.9-27.9-26.1
	C37.7,81,34.5,69.1,39.4,59.3c0.1-0.1,0.1-0.3,0.2-0.4c5.9-11.2,19.8-15.5,31-9.5c2.8,1.5,5.4,3.5,7.4,6c2-2.5,4.6-4.5,7.4-6
	c3.6-1.9,7.7-2.8,11.7-2.6l0,0c8.3,0.4,15.7,5.2,19.5,12.6C121.5,69.1,118.2,81,107,94.7z"/>
</svg>
