<?xml version="1.0" encoding="utf-8"?>
<!-- Generator: Adobe Illustrator 27.6.1, SVG Export Plug-In . SVG Version: 6.00 Build 0)  -->
<svg version="1.1" id="Calque_1" xmlns="http://www.w3.org/2000/svg" xmlns:xlink="http://www.w3.org/1999/xlink" x="0px" y="0px"
	 viewBox="0 0 212.6 212.6" style="enable-background:new 0 0 212.6 212.6;" xml:space="preserve">
<style type="text/css">
	.st0{fill:#4496A4;}
</style>
<path class="st0" d="M201.7,47.2c-0.8,1.5-1.5,3.1-2.5,4.5c-5.6,7.9-11.3,15.7-16.9,23.6c-0.3,0.4-0.5,1-0.5,1.5
	c0.3,9.4-1,18.5-3.9,27.4c-2,6-4.9,11.5-8.3,16.9c-5,8-11.4,15-18.7,21c-4.7,3.9-9.7,7.4-15.1,10.2c-0.9,0.5-1.3,1.1-1.3,2.1
	c0.1,9,0,18.1,0.1,27.1c0,3.5-1.8,5.9-4.9,6.5c-3.1,0.6-6.2-1.4-6.8-4.5c-0.2-1-0.2-2.1-0.2-3.1c0-7.1,0-14.2,0-21.2
	c0-0.3,0-0.6-0.1-1.1c-1.7,0.5-3.2,1.1-4.8,1.4c-3.6,0.9-7.2,1.7-10.9,2.4c-1.1,0.2-1.3,0.7-1.2,1.6c0.1,6.1,0.1,12.2,0.1,18.3
	c0,3.2-1.9,5.5-4.9,6.2c-3.1,0.7-6.2-1.4-6.8-4.5c-0.2-0.9-0.2-1.8-0.2-2.7c0-5.5,0-11,0-16.5c0-0.3,0-0.6-0.1-0.9
	c-1.6-0.1-3.2-0.1-4.7-0.2c-12.3-0.5-24-3.7-35.1-8.9c-13.9-6.5-24.8-16.3-33.7-28.7c-3.5-4.9-6.2-10.1-8.6-15.6
	c-1.8-4.2-0.1-7.9,4-8.8c1.8-0.4,3.3,0.2,4.7,1.2c3.9,3,8.1,5.4,12.8,6.8c9.8,3,19.5,2.4,28.8-1.8c7.6-3.4,13.7-8.7,18-15.8
	c3.4-5.6,5.1-11.7,5.6-18.2c0.5-5.8,1.2-11.6,3.2-17.1c3-8.2,7.9-15,14.6-20.5c9.7-8,21-11.6,33.4-10.9c12.5,0.7,23.2,5.6,31.6,15.1
	c0.6,0.7,1.3,0.9,2.2,0.9c7.4,0,14.8-0.1,22.2-0.1c1,0,2,0,3,0.1c2.8,0.2,4.6,1.7,5.4,4.3c0.1,0.3,0.3,0.5,0.4,0.8V47.2L201.7,47.2z
	"/>
</svg>
