<?xml version="1.0" encoding="utf-8"?>
<!-- Generator: Adobe Illustrator 27.6.1, SVG Export Plug-In . SVG Version: 6.00 Build 0)  -->
<svg version="1.1" id="Calque_1" xmlns="http://www.w3.org/2000/svg" xmlns:xlink="http://www.w3.org/1999/xlink" x="0px" y="0px"
	 viewBox="0 0 155.9 155.9" style="enable-background:new 0 0 155.9 155.9;" xml:space="preserve">
<style type="text/css">
	.st0{fill:#FFFFFF;}
</style>
<path class="st0" d="M78,0C34.9,0,0,34.9,0,78s34.9,78,78,78s78-34.9,78-78S121,0,78,0z M80.2,22.3l13.3,32.1
	c0.4,0.8,1.1,1.4,2.1,1.5l34.6,2.8c2.2,0.2,3,2.9,1.4,4.3l-26.4,22.6c-0.7,0.6-1,1.5-0.8,2.4l8.1,33.8c0.5,2.1-1.8,3.8-3.6,2.7
	l-29.6-18.1c-0.8-0.5-1.8-0.5-2.5,0L47,124.3c-1.9,1.1-4.2-0.5-3.6-2.7l8.1-33.8c0.2-0.9-0.1-1.8-0.8-2.4L24.3,62.9
	c-1.6-1.4-0.8-4.1,1.4-4.3l34.6-2.8c0.9-0.1,1.7-0.7,2.1-1.5l13.3-32.1C76.5,20.3,79.4,20.3,80.2,22.3z"/>
</svg>
