<?xml version="1.0" encoding="utf-8"?>
<!-- Generator: Adobe Illustrator 27.6.1, SVG Export Plug-In . SVG Version: 6.00 Build 0)  -->
<svg version="1.1" id="Calque_1" xmlns="http://www.w3.org/2000/svg" xmlns:xlink="http://www.w3.org/1999/xlink" x="0px" y="0px"
	 viewBox="0 0 155.9 155.9" style="enable-background:new 0 0 155.9 155.9;" xml:space="preserve">
<style type="text/css">
	.st0{fill:#FFFFFF;}
</style>
<g>
	<path class="st0" d="M78,5.6C38,5.6,5.6,38,5.6,78s32.4,72.3,72.3,72.3s72.3-32.4,72.3-72.3S117.9,5.6,78,5.6z M81.7,28.2
		l11.1,25.7c0.6,1.4,1.9,2.3,3.4,2.5L124,59c3.6,0.3,5,4.8,2.3,7.2l-21,18.5c-1.1,1-1.6,2.5-1.3,4l6.1,27.3c0.8,3.5-3,6.3-6.1,4.4
		L80,106.1c-1.3-0.8-2.9-0.8-4.2,0l-24.1,14.3c-3.1,1.8-6.9-0.9-6.1-4.4l6.1-27.3c0.3-1.5-0.2-3-1.3-4l-21-18.5
		c-2.7-2.4-1.3-6.8,2.3-7.2l27.9-2.6c1.5-0.1,2.8-1.1,3.4-2.5l11.1-25.7C75.6,24.9,80.2,24.9,81.7,28.2z"/>
</g>
</svg>
