<?xml version="1.0" encoding="UTF-8"?>
<svg id="Calque_1" data-name="Calque 1" xmlns="http://www.w3.org/2000/svg" viewBox="0 0 99.21 99.21">
  <path d="m14.33,20.09c0-.36,0-.71,0-1.07.07-.21.14-.41.21-.62.47-1.38,1.6-2.16,3.16-2.16,5.1,0,10.21,0,15.31,0,.61,0,.88-.19,1.04-.78.24-.83.49-1.65.7-2.49.37-1.49.9-2.9,1.9-4.1,1.9-2.27,4.32-3.5,7.27-3.53,3.76-.05,7.52-.01,11.28-.01.96,0,1.9.14,2.81.45,3.18,1.08,5.26,3.23,6.22,6.45.32,1.08.62,2.17.93,3.26.17.58.43.76,1.03.76,5.02,0,10.03,0,15.05,0,.29,0,.59.02.88.05,1.24.14,2.32,1.12,2.65,2.36.37,1.36-.33,2.73-1.18,3.35-.59.43-1.25.62-1.97.65-.39.02-.61.21-.66.6-.02.13-.02.27-.02.4-.04,1.45-.08,2.9-.13,4.36-.08,2.2-.17,4.4-.25,6.6-.06,1.66-.11,3.31-.17,4.97-.13,3.41-.28,6.82-.41,10.23-.1,2.53-.17,5.06-.27,7.59-.12,3.22-.25,6.45-.37,9.67-.1,2.57-.18,5.15-.27,7.72-.11,2.94-.21,5.88-.33,8.82-.04,1.07-.04,2.15-.23,3.19-.46,2.67-1.88,4.71-4.29,6.02-.98.53-2.01.96-3.19.95.13.06.23.1.34.14H27.64c.16-.03.33-.06.49-.09-.31-.06-.61-.07-.91-.14-2.99-.71-5.01-2.54-6.13-5.38-.45-1.15-.55-2.36-.59-3.59-.11-3.53-.27-7.05-.41-10.58-.08-2.26-.14-4.52-.23-6.79-.13-3.52-.28-7.03-.41-10.55-.08-2.26-.14-4.52-.23-6.79-.13-3.52-.28-7.03-.41-10.55-.09-2.28-.15-4.56-.23-6.84-.06-1.81-.13-3.61-.2-5.42-.05-1.3-.1-2.6-.15-3.9-.02-.39-.25-.6-.65-.63-.27-.02-.53-.05-.79-.11-1.26-.29-2.28-1.39-2.36-2.55-.04.03-.08.06-.11.09Zm19.25,35.93s-.02,0-.04,0c.08,2.24.17,4.47.24,6.71.09,2.99.15,5.99.23,8.98.06,2.06.14,4.11.19,6.17.01.52.14.98.44,1.4,1.13,1.65,3.55,1.48,4.44-.3.27-.53.27-1.1.25-1.67-.07-1.93-.15-3.86-.2-5.8-.09-3.01-.15-6.02-.23-9.03-.05-1.84-.14-3.69-.19-5.53-.08-2.97-.15-5.93-.23-8.9-.05-1.89-.14-3.78-.2-5.66-.07-2.18-.11-4.37-.17-6.55-.02-.68-.03-1.37-.1-2.05-.11-1.12-1.28-2.3-2.8-2.15-1.24.12-2.33,1.4-2.28,2.52.09,2.24.16,4.49.22,6.73.08,3.01.15,6.02.23,9.03.06,2.03.14,4.06.21,6.09Zm13.46.01c0,7.28,0,14.56,0,21.85,0,.53.15,1,.44,1.43.64.92,1.79,1.34,2.84,1.02,1.07-.33,1.85-1.32,1.85-2.39,0-14.58,0-29.16,0-43.74,0-1.38-1.17-2.55-2.53-2.55-1.45,0-2.6,1.12-2.6,2.55,0,7.28,0,14.56,0,21.85Zm13.45.01s-.02,0-.04,0c0,.6.01,1.19,0,1.79-.08,2.88-.17,5.75-.26,8.63-.05,1.74-.08,3.47-.13,5.21-.06,2.05-.12,4.1-.2,6.15-.02.64.19,1.19.6,1.66.7.8,1.58,1.13,2.61.84,1.02-.29,1.74-.94,1.87-2.03.1-.81.08-1.64.1-2.45.06-2.11.1-4.22.17-6.33.08-2.73.18-5.47.26-8.2.07-2.31.14-4.61.2-6.92.09-3.12.18-6.24.28-9.35.08-2.81.17-5.61.25-8.42.03-.94.08-1.89,0-2.83-.09-1.17-1.21-2.12-2.39-2.16-1.26-.04-2.44.83-2.62,2.02-.11.77-.09,1.56-.11,2.35-.09,2.88-.18,5.75-.26,8.63-.05,1.74-.08,3.47-.13,5.21-.06,2.07-.14,4.13-.21,6.2Zm-10.88-39.81h0c.38,0,.77,0,1.15,0,2.4,0,4.81,0,7.21,0,.55,0,.7-.19.56-.71-.15-.58-.34-1.14-.47-1.72-.23-.99-1.77-2.1-2.83-2.09-3.78.06-7.55.01-11.33.03-1.24,0-2.12.67-2.62,1.75-.32.68-.45,1.44-.65,2.17-.08.3.08.51.37.56.09.01.18.01.27.01,2.78,0,5.56,0,8.34,0Z"/>
</svg>