<?xml version="1.0" encoding="utf-8"?>
<!-- Generator: Adobe Illustrator 27.6.1, SVG Export Plug-In . SVG Version: 6.00 Build 0)  -->
<svg version="1.1" id="Calque_1" xmlns="http://www.w3.org/2000/svg" xmlns:xlink="http://www.w3.org/1999/xlink" x="0px" y="0px"
	 viewBox="0 0 155.9 155.9" style="enable-background:new 0 0 155.9 155.9;" xml:space="preserve">
<style type="text/css">
	.st0{fill:#FFFFFF;}
</style>
<g>
	<path class="st0" d="M78,58.6c-1.6,0-2.8,1.2-2.8,2.7c0,7.8,0,15.7,0,23.5c0,0,0,0,0,0c0,7.8,0,15.7,0,23.5c0,0.6,0.2,1.1,0.5,1.5
		c0.7,1,1.9,1.4,3.1,1.1c1.2-0.4,2-1.4,2-2.6c0-15.7,0-31.4,0-47.1C80.7,59.9,79.5,58.6,78,58.6z"/>
	<path class="st0" d="M87.1,39.4c-0.2-1.1-1.9-2.3-3.1-2.3c-4.1,0.1-8.1,0-12.2,0c-1.3,0-2.3,0.7-2.8,1.9c-0.3,0.7-0.5,1.6-0.7,2.3
		c-0.1,0.3,0.1,0.5,0.4,0.6c0.1,0,0.2,0,0.3,0c3,0,6,0,9,0c0.4,0,0.8,0,1.2,0c2.6,0,5.2,0,7.8,0c0.6,0,0.8-0.2,0.6-0.8
		C87.4,40.6,87.2,40,87.1,39.4z"/>
	<path class="st0" d="M66.7,101.6c-0.1-3.2-0.2-6.5-0.2-9.7c-0.1-2-0.2-4-0.2-6c-0.1-3.2-0.2-6.4-0.2-9.6c-0.1-2-0.2-4.1-0.2-6.1
		c-0.1-2.3-0.1-4.7-0.2-7.1c0-0.7,0-1.5-0.1-2.2c-0.1-1.2-1.4-2.5-3-2.3c-1.3,0.1-2.5,1.5-2.5,2.7c0.1,2.4,0.2,4.8,0.2,7.3
		c0.1,3.2,0.2,6.5,0.2,9.7c0.1,2.2,0.2,4.4,0.2,6.6l0,0c0,0,0,0,0,0c0.1,2.4,0.2,4.8,0.3,7.2c0.1,3.2,0.2,6.5,0.2,9.7
		c0.1,2.2,0.2,4.4,0.2,6.7c0,0.6,0.2,1.1,0.5,1.5c1.2,1.8,3.8,1.6,4.8-0.3c0.3-0.6,0.3-1.2,0.3-1.8
		C66.8,105.7,66.7,103.7,66.7,101.6z"/>
	<path class="st0" d="M78,0C34.9,0,0,34.9,0,78s34.9,77.9,77.9,77.9S155.9,121,155.9,78S121,0,78,0z M114.6,48.2
		c-0.6,0.5-1.3,0.7-2.1,0.7c-0.4,0-0.7,0.2-0.7,0.6c0,0.1,0,0.3,0,0.4c0,1.6-0.1,3.1-0.1,4.7c-0.1,2.4-0.2,4.7-0.3,7.1
		c-0.1,1.8-0.1,3.6-0.2,5.4c-0.1,3.7-0.3,7.4-0.4,11c-0.1,2.7-0.2,5.5-0.3,8.2c-0.1,3.5-0.3,7-0.4,10.4c-0.1,2.8-0.2,5.6-0.3,8.3
		c-0.1,3.2-0.2,6.3-0.4,9.5c0,1.2,0,2.3-0.2,3.4c-0.5,2.9-2,5.1-4.6,6.5c-1.1,0.6-2.2,1-3.4,1c0.1,0.1,0.2,0.1,0.4,0.2H54.3
		c0.2,0,0.4-0.1,0.5-0.1c-0.3-0.1-0.7-0.1-1-0.2c-3.2-0.8-5.4-2.7-6.6-5.8c-0.5-1.2-0.6-2.5-0.6-3.9c-0.1-3.8-0.3-7.6-0.4-11.4
		c-0.1-2.4-0.2-4.9-0.2-7.3c-0.1-3.8-0.3-7.6-0.4-11.4c-0.1-2.4-0.2-4.9-0.2-7.3c-0.1-3.8-0.3-7.6-0.4-11.4
		c-0.1-2.5-0.2-4.9-0.2-7.4c-0.1-2-0.1-3.9-0.2-5.8c-0.1-1.4-0.1-2.8-0.2-4.2c0-0.4-0.3-0.6-0.7-0.7c-0.3,0-0.6-0.1-0.9-0.1
		c-1.4-0.3-2.5-1.5-2.5-2.7c0,0-0.1,0.1-0.1,0.1l0,0c0-0.4,0-0.8,0-1.2c0.1-0.2,0.2-0.4,0.2-0.7c0.5-1.5,1.7-2.3,3.4-2.3
		c5.5,0,11,0,16.5,0c0.7,0,0.9-0.2,1.1-0.8c0.3-0.9,0.5-1.8,0.8-2.7c0.4-1.6,1-3.1,2-4.4c2-2.4,4.7-3.8,7.8-3.8
		c4.1-0.1,8.1,0,12.2,0c1,0,2,0.2,3,0.5c3.4,1.2,5.7,3.5,6.7,7c0.3,1.2,0.7,2.3,1,3.5c0.2,0.6,0.5,0.8,1.1,0.8c5.4,0,10.8,0,16.2,0
		c0.3,0,0.6,0,0.9,0.1c1.3,0.2,2.5,1.2,2.9,2.5C116.3,46.1,115.5,47.5,114.6,48.2z"/>
	<path class="st0" d="M93.3,58.6c-1.4,0-2.6,0.9-2.8,2.2c-0.1,0.8-0.1,1.7-0.1,2.5c-0.1,3.1-0.2,6.2-0.3,9.3
		c-0.1,1.9-0.1,3.7-0.1,5.6c-0.1,2.2-0.2,4.5-0.2,6.7c0,0,0,0,0,0c0,0.6,0,1.3,0,1.9c-0.1,3.1-0.2,6.2-0.3,9.3
		c-0.1,1.9-0.1,3.7-0.1,5.6c-0.1,2.2-0.1,4.4-0.2,6.6c0,0.7,0.2,1.3,0.6,1.8c0.8,0.9,1.7,1.2,2.8,0.9c1.1-0.3,1.9-1,2-2.2
		c0.1-0.9,0.1-1.8,0.1-2.6c0.1-2.3,0.1-4.5,0.2-6.8c0.1-2.9,0.2-5.9,0.3-8.8c0.1-2.5,0.2-5,0.2-7.5c0.1-3.4,0.2-6.7,0.3-10.1
		c0.1-3,0.2-6,0.3-9.1c0-1,0.1-2,0-3.1C95.7,59.6,94.5,58.6,93.3,58.6z"/>
</g>
</svg>
