<?xml version="1.0" encoding="utf-8"?>
<!-- Generator: Adobe Illustrator 28.4.1, SVG Export Plug-In . SVG Version: 6.00 Build 0)  -->
<svg version="1.1" xmlns="http://www.w3.org/2000/svg" xmlns:xlink="http://www.w3.org/1999/xlink" x="0px" y="0px"
	 viewBox="0 0 100 100" style="enable-background:new 0 0 100 100;" xml:space="preserve">
<g id="Calque_2">
</g>
<g id="Calque_1">
	<path d="M66.7,50l24.1-24.1c4.6-4.6,4.6-12,0-16.7c-4.6-4.6-12-4.6-16.7,0L50,33.3L25.9,9.2c-4.6-4.6-12-4.6-16.7,0
		c-4.6,4.6-4.6,12,0,16.7L33.3,50L9.2,74.1c-4.6,4.6-4.6,12,0,16.7c2.3,2.3,5.3,3.4,8.3,3.4s6-1.1,8.3-3.4l24.1-24.1L74,90.8
		c2.3,2.3,5.3,3.4,8.3,3.4c3,0,6-1.1,8.3-3.4c4.6-4.6,4.6-12,0-16.7L66.7,50z"/>
</g>
</svg>
