<?xml version="1.0" encoding="utf-8"?>
<!-- Generator: Adobe Illustrator 28.4.1, SVG Export Plug-In . SVG Version: 6.00 Build 0)  -->
<svg version="1.1" id="Calque_1" xmlns="http://www.w3.org/2000/svg" xmlns:xlink="http://www.w3.org/1999/xlink" x="0px" y="0px"
	 viewBox="0 0 100 100" style="enable-background:new 0 0 100 100;" xml:space="preserve">
<path d="M80.5,36.6H19.5c-0.4,0-0.7,0.3-0.7,0.7l1.8,43.6c0.3,6.9,6,12.4,12.9,12.4h33c7,0,12.7-5.5,12.9-12.4l1.8-43.6
	C81.2,36.9,80.9,36.6,80.5,36.6L80.5,36.6z"/>
<path d="M91.8,19.7c-0.6-2.4-2.9-3.9-5.3-3.9H71.2c-0.4,0-0.7-0.3-0.7-0.7c0-4.7-3.8-8.4-8.4-8.4H38c-4.7,0-8.4,3.8-8.4,8.4
	c0,0.4-0.3,0.7-0.7,0.7H13.5c-2.4,0-4.7,1.5-5.3,3.9c-0.9,3.5,1.7,6.6,5.1,6.6h73.5C90.1,26.3,92.7,23.1,91.8,19.7L91.8,19.7z"/>
</svg>
