<?xml version="1.0" encoding="utf-8"?>
<!-- Generator: Adobe Illustrator 28.4.1, SVG Export Plug-In . SVG Version: 6.00 Build 0)  -->
<svg version="1.1" id="Calque_1" xmlns="http://www.w3.org/2000/svg" xmlns:xlink="http://www.w3.org/1999/xlink" x="0px" y="0px"
	 viewBox="0 0 100 100" style="enable-background:new 0 0 100 100;" xml:space="preserve">
<path d="M7.3,85.4c-0.1,2,0.7,3.8,2,5.2c1.4,1.4,3.2,2.1,5.2,2L31.7,92L7.8,68.1L7.3,85.4z"/>
<path d="M10,62.6L56.7,16l27.2,27.2L37.2,89.8L10,62.6z"/>
<path d="M73.3,9.3c-1.4-1.4-3.2-2-5-2s-3.6,0.7-5,2l-2.8,2.8l27.2,27.2l2.8-2.8c1.3-1.3,2-3.1,2-5c0-1.9-0.7-3.6-2-5L73.3,9.3z"/>
</svg>
