<?xml version="1.0" encoding="utf-8"?>
<!-- Generator: Adobe Illustrator 28.4.1, SVG Export Plug-In . SVG Version: 6.00 Build 0)  -->
<svg version="1.1" id="Calque_1" xmlns="http://www.w3.org/2000/svg" xmlns:xlink="http://www.w3.org/1999/xlink" x="0px" y="0px"
	 viewBox="0 0 100 100" style="enable-background:new 0 0 100 100;" xml:space="preserve">
<g>
	<path d="M66.2,84.6v3.3c0,2.7-2.2,4.8-4.8,4.8H41.9c-2.6,0-4.8-2.2-4.8-4.8v-3.3c0-2.6,2.2-4.8,4.8-4.8h1.4V47.4
		c0-0.9,0-0.9-0.9-0.9h-3.6c-2.9,0-4.5-2.6-4.8-4.6c-0.4-2.9,1.6-4.7,3.7-5.6c1.5-0.6,3.1-0.9,4.7-0.9c3.2,0,6.4,0,9.6,0
		c2.8-0.1,5.4,1.2,7,3.4c1,1.2,1.5,2.7,1.5,4.3c0.1,2.2,0,4.4,0,6.7c0,10.1,0,20.2,0,30.3h0.9C64,79.9,66.1,82,66.2,84.6z"/>
	<circle cx="50.8" cy="17.6" r="10.3"/>
</g>
</svg>
