<?xml version="1.0" encoding="utf-8"?>
<!-- Generator: Adobe Illustrator 28.4.1, SVG Export Plug-In . SVG Version: 6.00 Build 0)  -->
<svg version="1.1" id="Calque_1" xmlns="http://www.w3.org/2000/svg" xmlns:xlink="http://www.w3.org/1999/xlink" x="0px" y="0px"
	 viewBox="0 0 100 100" style="enable-background:new 0 0 100 100;" xml:space="preserve">
<path d="M96.4,45.7c0,2.3-1,4.5-2.6,6L66.6,78.8c-2.4,2.5-6.1,3.2-9.2,1.8c-3.2-1.3-5.3-4.4-5.2-7.8V64C37,65,23.5,73.4,16,86.5
	c-1.1,2.1-3.3,3.4-5.7,3.5c-0.6,0-1.1-0.1-1.7-0.2c-2.9-0.7-4.9-3.3-4.9-6.3v-3.8c0-13.2,5-25.9,14-35.6c9-9.7,21.4-15.6,34.6-16.5
	v-9.1c0-3.4,2.1-6.5,5.2-7.8c3.2-1.4,6.8-0.6,9.2,1.8l27,27.1C95.4,41.2,96.3,43.4,96.4,45.7L96.4,45.7z"/>
</svg>
